# xmcd
#
# Track frame offsets:
#	183
#	16600
#	34730
#	53873
#	68068
#	87450
#	100013
#	122318
#	136400
#	152228
#
# Disc length: 2210 seconds
#
# Revision: 1
# Processed by: cddbd v1.5.2PL0 Copyright (c) Steve Scherf et al.
# Submitted via: audiograbber 1.83.01
#
DISCID=7508a00a
DTITLE=Candeeiro - Buenas, amigo
DYEAR=1900
DGENRE=Gaúcha
TTITLE0=Alambrador
TTITLE1=Festança do bugio
TTITLE2=Lamento de um pescador
TTITLE3=Linha da minha vida
TTITLE4=Morena Luxuosa
TTITLE5=Buenas amigo
TTITLE6=Sonhos
TTITLE7=Cantador dos cafundó
TTITLE8=Lourinha
TTITLE9=Porkaria
EXTD=
EXTT0=
EXTT1=
EXTT2=
EXTT3=
EXTT4=
EXTT5=
EXTT6=
EXTT7=
EXTT8=
EXTT9=
PLAYORDER=
